<?xml version="1.0" encoding="utf-8"?>
<svg width="1235" height="400" viewBox="0 0 1235 400" xmlns="http://www.w3.org/2000/svg">
	<text x="5" y="95" fill="#000000">UTC</text>
	<line x1="5" y1="100" x2="1135" y2="100" stroke="#000000" />
	<line x1="155" y1="90" x2="155" y2="110" stroke="#000000" />
	<text x="155" y="88" text-anchor="middle" fill="#000000">5</text>
	<line x1="175" y1="90" x2="175" y2="110" stroke="#000000" />
	<text x="175" y="88" text-anchor="middle" fill="#000000">6</text>
	<line x1="195" y1="90" x2="195" y2="110" stroke="#000000" />
	<text x="195" y="88" text-anchor="middle" fill="#000000">7</text>
	<line x1="215" y1="90" x2="215" y2="110" stroke="#000000" />
	<text x="215" y="88" text-anchor="middle" fill="#000000">8</text>
	<line x1="235" y1="90" x2="235" y2="110" stroke="#000000" />
	<text x="235" y="88" text-anchor="middle" fill="#000000">9</text>
	<line x1="255" y1="90" x2="255" y2="110" stroke="#000000" />
	<text x="255" y="88" text-anchor="middle" fill="#000000">10</text>
	<line x1="275" y1="90" x2="275" y2="110" stroke="#000000" />
	<text x="275" y="88" text-anchor="middle" fill="#000000">11</text>
	<line x1="295" y1="90" x2="295" y2="110" stroke="#000000" />
	<text x="295" y="88" text-anchor="middle" fill="#000000">12</text>
	<line x1="315" y1="90" x2="315" y2="110" stroke="#000000" />
	<text x="315" y="88" text-anchor="middle" fill="#000000">13</text>
	<line x1="335" y1="90" x2="335" y2="110" stroke="#000000" />
	<text x="335" y="88" text-anchor="middle" fill="#000000">14</text>
	<line x1="355" y1="90" x2="355" y2="110" stroke="#000000" />
	<text x="355" y="88" text-anchor="middle" fill="#000000">15</text>
	<line x1="375" y1="90" x2="375" y2="110" stroke="#000000" />
	<text x="375" y="88" text-anchor="middle" fill="#000000">16</text>
	<line x1="395" y1="90" x2="395" y2="110" stroke="#000000" />
	<text x="395" y="88" text-anchor="middle" fill="#000000">17</text>
	<line x1="415" y1="90" x2="415" y2="110" stroke="#000000" />
	<text x="415" y="88" text-anchor="middle" fill="#000000">18</text>
	<line x1="435" y1="90" x2="435" y2="110" stroke="#000000" />
	<text x="435" y="88" text-anchor="middle" fill="#000000">19</text>
	<line x1="455" y1="90" x2="455" y2="110" stroke="#000000" />
	<text x="455" y="88" text-anchor="middle" fill="#000000">20</text>
	<line x1="475" y1="90" x2="475" y2="110" stroke="#000000" />
	<text x="475" y="88" text-anchor="middle" fill="#000000">21</text>
	<line x1="495" y1="90" x2="495" y2="110" stroke="#000000" />
	<text x="495" y="88" text-anchor="middle" fill="#000000">22</text>
	<line x1="515" y1="90" x2="515" y2="110" stroke="#000000" />
	<text x="515" y="88" text-anchor="middle" fill="#000000">23</text>
	<line x1="535" y1="75" x2="535" y2="125" stroke="#000000" />
	<text x="535" y="73" text-anchor="middle" fill="#000000">11/5/2023</text>
	<line x1="555" y1="90" x2="555" y2="110" stroke="#000000" />
	<text x="555" y="88" text-anchor="middle" fill="#000000">1</text>
	<line x1="575" y1="90" x2="575" y2="110" stroke="#000000" />
	<text x="575" y="88" text-anchor="middle" fill="#000000">2</text>
	<line x1="595" y1="90" x2="595" y2="110" stroke="#000000" />
	<text x="595" y="88" text-anchor="middle" fill="#000000">3</text>
	<line x1="615" y1="90" x2="615" y2="110" stroke="#000000" />
	<text x="615" y="88" text-anchor="middle" fill="#000000">4</text>
	<line x1="635" y1="90" x2="635" y2="110" stroke="#000000" />
	<text x="635" y="88" text-anchor="middle" fill="#000000">5</text>
	<line x1="655" y1="90" x2="655" y2="110" stroke="#000000" />
	<text x="655" y="88" text-anchor="middle" fill="#000000">6</text>
	<line x1="675" y1="90" x2="675" y2="110" stroke="#000000" />
	<text x="675" y="88" text-anchor="middle" fill="#000000">7</text>
	<line x1="695" y1="90" x2="695" y2="110" stroke="#000000" />
	<text x="695" y="88" text-anchor="middle" fill="#000000">8</text>
	<line x1="715" y1="90" x2="715" y2="110" stroke="#000000" />
	<text x="715" y="88" text-anchor="middle" fill="#000000">9</text>
	<line x1="735" y1="90" x2="735" y2="110" stroke="#000000" />
	<text x="735" y="88" text-anchor="middle" fill="#000000">10</text>
	<line x1="755" y1="90" x2="755" y2="110" stroke="#000000" />
	<text x="755" y="88" text-anchor="middle" fill="#000000">11</text>
	<line x1="775" y1="90" x2="775" y2="110" stroke="#000000" />
	<text x="775" y="88" text-anchor="middle" fill="#000000">12</text>
	<line x1="795" y1="90" x2="795" y2="110" stroke="#000000" />
	<text x="795" y="88" text-anchor="middle" fill="#000000">13</text>
	<line x1="815" y1="90" x2="815" y2="110" stroke="#000000" />
	<text x="815" y="88" text-anchor="middle" fill="#000000">14</text>
	<line x1="835" y1="90" x2="835" y2="110" stroke="#000000" />
	<text x="835" y="88" text-anchor="middle" fill="#000000">15</text>
	<line x1="855" y1="90" x2="855" y2="110" stroke="#000000" />
	<text x="855" y="88" text-anchor="middle" fill="#000000">16</text>
	<line x1="875" y1="90" x2="875" y2="110" stroke="#000000" />
	<text x="875" y="88" text-anchor="middle" fill="#000000">17</text>
	<line x1="895" y1="90" x2="895" y2="110" stroke="#000000" />
	<text x="895" y="88" text-anchor="middle" fill="#000000">18</text>
	<line x1="915" y1="90" x2="915" y2="110" stroke="#000000" />
	<text x="915" y="88" text-anchor="middle" fill="#000000">19</text>
	<line x1="935" y1="90" x2="935" y2="110" stroke="#000000" />
	<text x="935" y="88" text-anchor="middle" fill="#000000">20</text>
	<line x1="955" y1="90" x2="955" y2="110" stroke="#000000" />
	<text x="955" y="88" text-anchor="middle" fill="#000000">21</text>
	<line x1="975" y1="90" x2="975" y2="110" stroke="#000000" />
	<text x="975" y="88" text-anchor="middle" fill="#000000">22</text>
	<line x1="995" y1="90" x2="995" y2="110" stroke="#000000" />
	<text x="995" y="88" text-anchor="middle" fill="#000000">23</text>
	<line x1="1015" y1="75" x2="1015" y2="125" stroke="#000000" />
	<text x="1015" y="73" text-anchor="middle" fill="#000000">11/6/2023</text>
	<line x1="1035" y1="90" x2="1035" y2="110" stroke="#000000" />
	<text x="1035" y="88" text-anchor="middle" fill="#000000">1</text>
	<line x1="1055" y1="90" x2="1055" y2="110" stroke="#000000" />
	<text x="1055" y="88" text-anchor="middle" fill="#000000">2</text>
	<line x1="1075" y1="90" x2="1075" y2="110" stroke="#000000" />
	<text x="1075" y="88" text-anchor="middle" fill="#000000">3</text>
	<line x1="1095" y1="90" x2="1095" y2="110" stroke="#000000" />
	<text x="1095" y="88" text-anchor="middle" fill="#000000">4</text>
	<line x1="1115" y1="90" x2="1115" y2="110" stroke="#000000" />
	<text x="1115" y="88" text-anchor="middle" fill="#000000">5</text>
	<line x1="1135" y1="90" x2="1135" y2="110" stroke="#000000" />
	<text x="1135" y="88" text-anchor="middle" fill="#000000">6</text>
	<text x="5" y="195" fill="#000000">America/Chicago</text>
	<line x1="5" y1="200" x2="1135" y2="200" stroke="#000000" />
	<line x1="155" y1="175" x2="155" y2="225" stroke="#000000" />
	<text x="155" y="173" text-anchor="middle" fill="#000000">11/4/2023</text>
	<line x1="175" y1="190" x2="175" y2="210" stroke="#000000" />
	<text x="175" y="188" text-anchor="middle" fill="#000000">1</text>
	<line x1="195" y1="190" x2="195" y2="210" stroke="#000000" />
	<text x="195" y="188" text-anchor="middle" fill="#000000">2</text>
	<line x1="215" y1="190" x2="215" y2="210" stroke="#000000" />
	<text x="215" y="188" text-anchor="middle" fill="#000000">3</text>
	<line x1="235" y1="190" x2="235" y2="210" stroke="#000000" />
	<text x="235" y="188" text-anchor="middle" fill="#000000">4</text>
	<line x1="255" y1="190" x2="255" y2="210" stroke="#000000" />
	<text x="255" y="188" text-anchor="middle" fill="#000000">5</text>
	<line x1="275" y1="190" x2="275" y2="210" stroke="#000000" />
	<text x="275" y="188" text-anchor="middle" fill="#000000">6</text>
	<line x1="295" y1="190" x2="295" y2="210" stroke="#000000" />
	<text x="295" y="188" text-anchor="middle" fill="#000000">7</text>
	<line x1="315" y1="190" x2="315" y2="210" stroke="#000000" />
	<text x="315" y="188" text-anchor="middle" fill="#000000">8</text>
	<line x1="335" y1="190" x2="335" y2="210" stroke="#000000" />
	<text x="335" y="188" text-anchor="middle" fill="#000000">9</text>
	<line x1="355" y1="190" x2="355" y2="210" stroke="#000000" />
	<text x="355" y="188" text-anchor="middle" fill="#000000">10</text>
	<line x1="375" y1="190" x2="375" y2="210" stroke="#000000" />
	<text x="375" y="188" text-anchor="middle" fill="#000000">11</text>
	<line x1="395" y1="190" x2="395" y2="210" stroke="#000000" />
	<text x="395" y="188" text-anchor="middle" fill="#000000">12</text>
	<line x1="415" y1="190" x2="415" y2="210" stroke="#000000" />
	<text x="415" y="188" text-anchor="middle" fill="#000000">13</text>
	<line x1="435" y1="190" x2="435" y2="210" stroke="#000000" />
	<text x="435" y="188" text-anchor="middle" fill="#000000">14</text>
	<line x1="455" y1="190" x2="455" y2="210" stroke="#000000" />
	<text x="455" y="188" text-anchor="middle" fill="#000000">15</text>
	<line x1="475" y1="190" x2="475" y2="210" stroke="#000000" />
	<text x="475" y="188" text-anchor="middle" fill="#000000">16</text>
	<line x1="495" y1="190" x2="495" y2="210" stroke="#000000" />
	<text x="495" y="188" text-anchor="middle" fill="#000000">17</text>
	<line x1="515" y1="190" x2="515" y2="210" stroke="#000000" />
	<text x="515" y="188" text-anchor="middle" fill="#000000">18</text>
	<line x1="535" y1="190" x2="535" y2="210" stroke="#000000" />
	<text x="535" y="188" text-anchor="middle" fill="#000000">19</text>
	<line x1="555" y1="190" x2="555" y2="210" stroke="#000000" />
	<text x="555" y="188" text-anchor="middle" fill="#000000">20</text>
	<line x1="575" y1="190" x2="575" y2="210" stroke="#000000" />
	<text x="575" y="188" text-anchor="middle" fill="#000000">21</text>
	<line x1="595" y1="190" x2="595" y2="210" stroke="#000000" />
	<text x="595" y="188" text-anchor="middle" fill="#000000">22</text>
	<line x1="615" y1="190" x2="615" y2="210" stroke="#000000" />
	<text x="615" y="188" text-anchor="middle" fill="#000000">23</text>
	<line x1="635" y1="175" x2="635" y2="225" stroke="#000000" />
	<text x="635" y="173" text-anchor="middle" fill="#000000">11/5/2023</text>
	<line x1="655" y1="190" x2="655" y2="210" stroke="#000000" />
	<text x="655" y="188" text-anchor="middle" fill="#000000">1</text>
	<line x1="675" y1="190" x2="675" y2="210" stroke="#000000" />
	<text x="675" y="188" text-anchor="middle" fill="#000000">1</text>
	<line x1="695" y1="190" x2="695" y2="210" stroke="#000000" />
	<text x="695" y="188" text-anchor="middle" fill="#000000">2</text>
	<line x1="715" y1="190" x2="715" y2="210" stroke="#000000" />
	<text x="715" y="188" text-anchor="middle" fill="#000000">3</text>
	<line x1="735" y1="190" x2="735" y2="210" stroke="#000000" />
	<text x="735" y="188" text-anchor="middle" fill="#000000">4</text>
	<line x1="755" y1="190" x2="755" y2="210" stroke="#000000" />
	<text x="755" y="188" text-anchor="middle" fill="#000000">5</text>
	<line x1="775" y1="190" x2="775" y2="210" stroke="#000000" />
	<text x="775" y="188" text-anchor="middle" fill="#000000">6</text>
	<line x1="795" y1="190" x2="795" y2="210" stroke="#000000" />
	<text x="795" y="188" text-anchor="middle" fill="#000000">7</text>
	<line x1="815" y1="190" x2="815" y2="210" stroke="#000000" />
	<text x="815" y="188" text-anchor="middle" fill="#000000">8</text>
	<line x1="835" y1="190" x2="835" y2="210" stroke="#000000" />
	<text x="835" y="188" text-anchor="middle" fill="#000000">9</text>
	<line x1="855" y1="190" x2="855" y2="210" stroke="#000000" />
	<text x="855" y="188" text-anchor="middle" fill="#000000">10</text>
	<line x1="875" y1="190" x2="875" y2="210" stroke="#000000" />
	<text x="875" y="188" text-anchor="middle" fill="#000000">11</text>
	<line x1="895" y1="190" x2="895" y2="210" stroke="#000000" />
	<text x="895" y="188" text-anchor="middle" fill="#000000">12</text>
	<line x1="915" y1="190" x2="915" y2="210" stroke="#000000" />
	<text x="915" y="188" text-anchor="middle" fill="#000000">13</text>
	<line x1="935" y1="190" x2="935" y2="210" stroke="#000000" />
	<text x="935" y="188" text-anchor="middle" fill="#000000">14</text>
	<line x1="955" y1="190" x2="955" y2="210" stroke="#000000" />
	<text x="955" y="188" text-anchor="middle" fill="#000000">15</text>
	<line x1="975" y1="190" x2="975" y2="210" stroke="#000000" />
	<text x="975" y="188" text-anchor="middle" fill="#000000">16</text>
	<line x1="995" y1="190" x2="995" y2="210" stroke="#000000" />
	<text x="995" y="188" text-anchor="middle" fill="#000000">17</text>
	<line x1="1015" y1="190" x2="1015" y2="210" stroke="#000000" />
	<text x="1015" y="188" text-anchor="middle" fill="#000000">18</text>
	<line x1="1035" y1="190" x2="1035" y2="210" stroke="#000000" />
	<text x="1035" y="188" text-anchor="middle" fill="#000000">19</text>
	<line x1="1055" y1="190" x2="1055" y2="210" stroke="#000000" />
	<text x="1055" y="188" text-anchor="middle" fill="#000000">20</text>
	<line x1="1075" y1="190" x2="1075" y2="210" stroke="#000000" />
	<text x="1075" y="188" text-anchor="middle" fill="#000000">21</text>
	<line x1="1095" y1="190" x2="1095" y2="210" stroke="#000000" />
	<text x="1095" y="188" text-anchor="middle" fill="#000000">22</text>
	<line x1="1115" y1="190" x2="1115" y2="210" stroke="#000000" />
	<text x="1115" y="188" text-anchor="middle" fill="#000000">23</text>
	<line x1="1135" y1="175" x2="1135" y2="225" stroke="#000000" />
	<text x="1135" y="173" text-anchor="middle" fill="#000000">11/6/2023</text>
	<text x="5" y="295" fill="#000000">America/St_Johns</text>
	<line x1="5" y1="300" x2="1135" y2="300" stroke="#000000" />
	<line x1="165" y1="290" x2="165" y2="310" stroke="#000000" />
	<text x="165" y="288" text-anchor="middle" fill="#000000">3</text>
	<line x1="185" y1="290" x2="185" y2="310" stroke="#000000" />
	<text x="185" y="288" text-anchor="middle" fill="#000000">4</text>
	<line x1="205" y1="290" x2="205" y2="310" stroke="#000000" />
	<text x="205" y="288" text-anchor="middle" fill="#000000">5</text>
	<line x1="225" y1="290" x2="225" y2="310" stroke="#000000" />
	<text x="225" y="288" text-anchor="middle" fill="#000000">6</text>
	<line x1="245" y1="290" x2="245" y2="310" stroke="#000000" />
	<text x="245" y="288" text-anchor="middle" fill="#000000">7</text>
	<line x1="265" y1="290" x2="265" y2="310" stroke="#000000" />
	<text x="265" y="288" text-anchor="middle" fill="#000000">8</text>
	<line x1="285" y1="290" x2="285" y2="310" stroke="#000000" />
	<text x="285" y="288" text-anchor="middle" fill="#000000">9</text>
	<line x1="305" y1="290" x2="305" y2="310" stroke="#000000" />
	<text x="305" y="288" text-anchor="middle" fill="#000000">10</text>
	<line x1="325" y1="290" x2="325" y2="310" stroke="#000000" />
	<text x="325" y="288" text-anchor="middle" fill="#000000">11</text>
	<line x1="345" y1="290" x2="345" y2="310" stroke="#000000" />
	<text x="345" y="288" text-anchor="middle" fill="#000000">12</text>
	<line x1="365" y1="290" x2="365" y2="310" stroke="#000000" />
	<text x="365" y="288" text-anchor="middle" fill="#000000">13</text>
	<line x1="385" y1="290" x2="385" y2="310" stroke="#000000" />
	<text x="385" y="288" text-anchor="middle" fill="#000000">14</text>
	<line x1="405" y1="290" x2="405" y2="310" stroke="#000000" />
	<text x="405" y="288" text-anchor="middle" fill="#000000">15</text>
	<line x1="425" y1="290" x2="425" y2="310" stroke="#000000" />
	<text x="425" y="288" text-anchor="middle" fill="#000000">16</text>
	<line x1="445" y1="290" x2="445" y2="310" stroke="#000000" />
	<text x="445" y="288" text-anchor="middle" fill="#000000">17</text>
	<line x1="465" y1="290" x2="465" y2="310" stroke="#000000" />
	<text x="465" y="288" text-anchor="middle" fill="#000000">18</text>
	<line x1="485" y1="290" x2="485" y2="310" stroke="#000000" />
	<text x="485" y="288" text-anchor="middle" fill="#000000">19</text>
	<line x1="505" y1="290" x2="505" y2="310" stroke="#000000" />
	<text x="505" y="288" text-anchor="middle" fill="#000000">20</text>
	<line x1="525" y1="290" x2="525" y2="310" stroke="#000000" />
	<text x="525" y="288" text-anchor="middle" fill="#000000">21</text>
	<line x1="545" y1="290" x2="545" y2="310" stroke="#000000" />
	<text x="545" y="288" text-anchor="middle" fill="#000000">22</text>
	<line x1="565" y1="290" x2="565" y2="310" stroke="#000000" />
	<text x="565" y="288" text-anchor="middle" fill="#000000">23</text>
	<line x1="585" y1="275" x2="585" y2="325" stroke="#000000" />
	<text x="585" y="273" text-anchor="middle" fill="#000000">11/5/2023</text>
	<line x1="605" y1="290" x2="605" y2="310" stroke="#000000" />
	<text x="605" y="288" text-anchor="middle" fill="#000000">1</text>
	<line x1="625" y1="290" x2="625" y2="310" stroke="#000000" />
	<text x="625" y="288" text-anchor="middle" fill="#000000">1</text>
	<line x1="645" y1="290" x2="645" y2="310" stroke="#000000" />
	<text x="645" y="288" text-anchor="middle" fill="#000000">2</text>
	<line x1="665" y1="290" x2="665" y2="310" stroke="#000000" />
	<text x="665" y="288" text-anchor="middle" fill="#000000">3</text>
	<line x1="685" y1="290" x2="685" y2="310" stroke="#000000" />
	<text x="685" y="288" text-anchor="middle" fill="#000000">4</text>
	<line x1="705" y1="290" x2="705" y2="310" stroke="#000000" />
	<text x="705" y="288" text-anchor="middle" fill="#000000">5</text>
	<line x1="725" y1="290" x2="725" y2="310" stroke="#000000" />
	<text x="725" y="288" text-anchor="middle" fill="#000000">6</text>
	<line x1="745" y1="290" x2="745" y2="310" stroke="#000000" />
	<text x="745" y="288" text-anchor="middle" fill="#000000">7</text>
	<line x1="765" y1="290" x2="765" y2="310" stroke="#000000" />
	<text x="765" y="288" text-anchor="middle" fill="#000000">8</text>
	<line x1="785" y1="290" x2="785" y2="310" stroke="#000000" />
	<text x="785" y="288" text-anchor="middle" fill="#000000">9</text>
	<line x1="805" y1="290" x2="805" y2="310" stroke="#000000" />
	<text x="805" y="288" text-anchor="middle" fill="#000000">10</text>
	<line x1="825" y1="290" x2="825" y2="310" stroke="#000000" />
	<text x="825" y="288" text-anchor="middle" fill="#000000">11</text>
	<line x1="845" y1="290" x2="845" y2="310" stroke="#000000" />
	<text x="845" y="288" text-anchor="middle" fill="#000000">12</text>
	<line x1="865" y1="290" x2="865" y2="310" stroke="#000000" />
	<text x="865" y="288" text-anchor="middle" fill="#000000">13</text>
	<line x1="885" y1="290" x2="885" y2="310" stroke="#000000" />
	<text x="885" y="288" text-anchor="middle" fill="#000000">14</text>
	<line x1="905" y1="290" x2="905" y2="310" stroke="#000000" />
	<text x="905" y="288" text-anchor="middle" fill="#000000">15</text>
	<line x1="925" y1="290" x2="925" y2="310" stroke="#000000" />
	<text x="925" y="288" text-anchor="middle" fill="#000000">16</text>
	<line x1="945" y1="290" x2="945" y2="310" stroke="#000000" />
	<text x="945" y="288" text-anchor="middle" fill="#000000">17</text>
	<line x1="965" y1="290" x2="965" y2="310" stroke="#000000" />
	<text x="965" y="288" text-anchor="middle" fill="#000000">18</text>
	<line x1="985" y1="290" x2="985" y2="310" stroke="#000000" />
	<text x="985" y="288" text-anchor="middle" fill="#000000">19</text>
	<line x1="1005" y1="290" x2="1005" y2="310" stroke="#000000" />
	<text x="1005" y="288" text-anchor="middle" fill="#000000">20</text>
	<line x1="1025" y1="290" x2="1025" y2="310" stroke="#000000" />
	<text x="1025" y="288" text-anchor="middle" fill="#000000">21</text>
	<line x1="1045" y1="290" x2="1045" y2="310" stroke="#000000" />
	<text x="1045" y="288" text-anchor="middle" fill="#000000">22</text>
	<line x1="1065" y1="290" x2="1065" y2="310" stroke="#000000" />
	<text x="1065" y="288" text-anchor="middle" fill="#000000">23</text>
	<line x1="1085" y1="275" x2="1085" y2="325" stroke="#000000" />
	<text x="1085" y="273" text-anchor="middle" fill="#000000">11/6/2023</text>
	<line x1="1105" y1="290" x2="1105" y2="310" stroke="#000000" />
	<text x="1105" y="288" text-anchor="middle" fill="#000000">1</text>
	<line x1="1125" y1="290" x2="1125" y2="310" stroke="#000000" />
	<text x="1125" y="288" text-anchor="middle" fill="#000000">2</text>
	<line x1="155" y1="100" x2="155" y2="400" stroke="#000000" opacity="0.5" />
	<line x1="635" y1="100" x2="635" y2="400" stroke="#000000" opacity="0.5" />
	<line x1="155" y1="400" x2="635" y2="400" stroke="#000000" />
	<text x="395" y="395" text-anchor="middle" fill="#000000">11/4/2023</text>
	<line x1="635" y1="100" x2="635" y2="400" stroke="#000000" opacity="0.5" />
	<line x1="1135" y1="100" x2="1135" y2="400" stroke="#000000" opacity="0.5" />
	<line x1="635" y1="400" x2="1135" y2="400" stroke="#000000" />
	<text x="885" y="395" text-anchor="middle" fill="#000000">11/5/2023</text>
</svg>