<?xml version="1.0" encoding="utf-8"?>
<svg width="1210" height="400" viewBox="0 0 1210 400" xmlns="http://www.w3.org/2000/svg">
	<rect x="0" y="0" width="1210" height="400" fill="white" />
	<text x="5" y="95" fill="#000000">UTC</text>
	<line x1="5" y1="100" x2="1135" y2="100" stroke="#000000" />
	<line x1="155" y1="90" x2="155" y2="110" stroke="#000000" />
	<text x="155" y="88" text-anchor="middle" fill="#000000">5</text>
	<line x1="175" y1="90" x2="175" y2="110" stroke="#000000" />
	<text x="175" y="88" text-anchor="middle" fill="#000000">6</text>
	<line x1="195" y1="90" x2="195" y2="110" stroke="#000000" />
	<text x="195" y="88" text-anchor="middle" fill="#000000">7</text>
	<line x1="215" y1="90" x2="215" y2="110" stroke="#000000" />
	<text x="215" y="88" text-anchor="middle" fill="#000000">8</text>
	<line x1="235" y1="90" x2="235" y2="110" stroke="#000000" />
	<text x="235" y="88" text-anchor="middle" fill="#000000">9</text>
	<line x1="255" y1="90" x2="255" y2="110" stroke="#000000" />
	<text x="255" y="88" text-anchor="middle" fill="#000000">10</text>
	<line x1="275" y1="90" x2="275" y2="110" stroke="#000000" />
	<text x="275" y="88" text-anchor="middle" fill="#000000">11</text>
	<line x1="295" y1="90" x2="295" y2="110" stroke="#000000" />
	<text x="295" y="88" text-anchor="middle" fill="#000000">12</text>
	<line x1="315" y1="90" x2="315" y2="110" stroke="#000000" />
	<text x="315" y="88" text-anchor="middle" fill="#000000">13</text>
	<line x1="335" y1="90" x2="335" y2="110" stroke="#000000" />
	<text x="335" y="88" text-anchor="middle" fill="#000000">14</text>
	<line x1="355" y1="90" x2="355" y2="110" stroke="#000000" />
	<text x="355" y="88" text-anchor="middle" fill="#000000">15</text>
	<line x1="375" y1="90" x2="375" y2="110" stroke="#000000" />
	<text x="375" y="88" text-anchor="middle" fill="#000000">16</text>
	<line x1="395" y1="90" x2="395" y2="110" stroke="#000000" />
	<text x="395" y="88" text-anchor="middle" fill="#000000">17</text>
	<line x1="415" y1="90" x2="415" y2="110" stroke="#000000" />
	<text x="415" y="88" text-anchor="middle" fill="#000000">18</text>
	<line x1="435" y1="90" x2="435" y2="110" stroke="#000000" />
	<text x="435" y="88" text-anchor="middle" fill="#000000">19</text>
	<line x1="455" y1="90" x2="455" y2="110" stroke="#000000" />
	<text x="455" y="88" text-anchor="middle" fill="#000000">20</text>
	<line x1="475" y1="90" x2="475" y2="110" stroke="#000000" />
	<text x="475" y="88" text-anchor="middle" fill="#000000">21</text>
	<line x1="495" y1="90" x2="495" y2="110" stroke="#000000" />
	<text x="495" y="88" text-anchor="middle" fill="#000000">22</text>
	<line x1="515" y1="90" x2="515" y2="110" stroke="#000000" />
	<text x="515" y="88" text-anchor="middle" fill="#000000">23</text>
	<line x1="535" y1="75" x2="535" y2="125" stroke="#000000" />
	<text x="535" y="73" text-anchor="middle" fill="#000000">11/5/2023</text>
	<line x1="555" y1="90" x2="555" y2="110" stroke="#000000" />
	<text x="555" y="88" text-anchor="middle" fill="#000000">1</text>
	<line x1="575" y1="90" x2="575" y2="110" stroke="#000000" />
	<text x="575" y="88" text-anchor="middle" fill="#000000">2</text>
	<line x1="595" y1="90" x2="595" y2="110" stroke="#000000" />
	<text x="595" y="88" text-anchor="middle" fill="#000000">3</text>
	<line x1="615" y1="90" x2="615" y2="110" stroke="#000000" />
	<text x="615" y="88" text-anchor="middle" fill="#000000">4</text>
	<line x1="635" y1="90" x2="635" y2="110" stroke="#000000" />
	<text x="635" y="88" text-anchor="middle" fill="#000000">5</text>
	<line x1="655" y1="90" x2="655" y2="110" stroke="#000000" />
	<text x="655" y="88" text-anchor="middle" fill="#000000">6</text>
	<line x1="675" y1="90" x2="675" y2="110" stroke="#000000" />
	<text x="675" y="88" text-anchor="middle" fill="#000000">7</text>
	<line x1="695" y1="90" x2="695" y2="110" stroke="#000000" />
	<text x="695" y="88" text-anchor="middle" fill="#000000">8</text>
	<line x1="715" y1="90" x2="715" y2="110" stroke="#000000" />
	<text x="715" y="88" text-anchor="middle" fill="#000000">9</text>
	<line x1="735" y1="90" x2="735" y2="110" stroke="#000000" />
	<text x="735" y="88" text-anchor="middle" fill="#000000">10</text>
	<line x1="755" y1="90" x2="755" y2="110" stroke="#000000" />
	<text x="755" y="88" text-anchor="middle" fill="#000000">11</text>
	<line x1="775" y1="90" x2="775" y2="110" stroke="#000000" />
	<text x="775" y="88" text-anchor="middle" fill="#000000">12</text>
	<line x1="795" y1="90" x2="795" y2="110" stroke="#000000" />
	<text x="795" y="88" text-anchor="middle" fill="#000000">13</text>
	<line x1="815" y1="90" x2="815" y2="110" stroke="#000000" />
	<text x="815" y="88" text-anchor="middle" fill="#000000">14</text>
	<line x1="835" y1="90" x2="835" y2="110" stroke="#000000" />
	<text x="835" y="88" text-anchor="middle" fill="#000000">15</text>
	<line x1="855" y1="90" x2="855" y2="110" stroke="#000000" />
	<text x="855" y="88" text-anchor="middle" fill="#000000">16</text>
	<line x1="875" y1="90" x2="875" y2="110" stroke="#000000" />
	<text x="875" y="88" text-anchor="middle" fill="#000000">17</text>
	<line x1="895" y1="90" x2="895" y2="110" stroke="#000000" />
	<text x="895" y="88" text-anchor="middle" fill="#000000">18</text>
	<line x1="915" y1="90" x2="915" y2="110" stroke="#000000" />
	<text x="915" y="88" text-anchor="middle" fill="#000000">19</text>
	<line x1="935" y1="90" x2="935" y2="110" stroke="#000000" />
	<text x="935" y="88" text-anchor="middle" fill="#000000">20</text>
	<line x1="955" y1="90" x2="955" y2="110" stroke="#000000" />
	<text x="955" y="88" text-anchor="middle" fill="#000000">21</text>
	<line x1="975" y1="90" x2="975" y2="110" stroke="#000000" />
	<text x="975" y="88" text-anchor="middle" fill="#000000">22</text>
	<line x1="995" y1="90" x2="995" y2="110" stroke="#000000" />
	<text x="995" y="88" text-anchor="middle" fill="#000000">23</text>
	<line x1="1015" y1="75" x2="1015" y2="125" stroke="#000000" />
	<text x="1015" y="73" text-anchor="middle" fill="#000000">11/6/2023</text>
	<line x1="1035" y1="90" x2="1035" y2="110" stroke="#000000" />
	<text x="1035" y="88" text-anchor="middle" fill="#000000">1</text>
	<line x1="1055" y1="90" x2="1055" y2="110" stroke="#000000" />
	<text x="1055" y="88" text-anchor="middle" fill="#000000">2</text>
	<line x1="1075" y1="90" x2="1075" y2="110" stroke="#000000" />
	<text x="1075" y="88" text-anchor="middle" fill="#000000">3</text>
	<line x1="1095" y1="90" x2="1095" y2="110" stroke="#000000" />
	<text x="1095" y="88" text-anchor="middle" fill="#000000">4</text>
	<line x1="1115" y1="90" x2="1115" y2="110" stroke="#000000" />
	<text x="1115" y="88" text-anchor="middle" fill="#000000">5</text>
	<line x1="1135" y1="90" x2="1135" y2="110" stroke="#000000" />
	<text x="1135" y="88" text-anchor="middle" fill="#000000">6</text>
	<text x="5" y="195" fill="#000000">America/Chicago</text>
	<line x1="5" y1="200" x2="1135" y2="200" stroke="#000000" />
	<line x1="155" y1="175" x2="155" y2="225" stroke="#000000" />
	<text x="155" y="173" text-anchor="middle" fill="#000000">11/4/2023</text>
	<line x1="175" y1="190" x2="175" y2="210" stroke="#000000" />
	<text x="175" y="188" text-anchor="middle" fill="#000000">1</text>
	<line x1="195" y1="190" x2="195" y2="210" stroke="#000000" />
	<text x="195" y="188" text-anchor="middle" fill="#000000">2</text>
	<line x1="215" y1="190" x2="215" y2="210" stroke="#000000" />
	<text x="215" y="188" text-anchor="middle" fill="#000000">3</text>
	<line x1="235" y1="190" x2="235" y2="210" stroke="#000000" />
	<text x="235" y="188" text-anchor="middle" fill="#000000">4</text>
	<line x1="255" y1="190" x2="255" y2="210" stroke="#000000" />
	<text x="255" y="188" text-anchor="middle" fill="#000000">5</text>
	<line x1="275" y1="190" x2="275" y2="210" stroke="#000000" />
	<text x="275" y="188" text-anchor="middle" fill="#000000">6</text>
	<line x1="295" y1="190" x2="295" y2="210" stroke="#000000" />
	<text x="295" y="188" text-anchor="middle" fill="#000000">7</text>
	<line x1="315" y1="190" x2="315" y2="210" stroke="#000000" />
	<text x="315" y="188" text-anchor="middle" fill="#000000">8</text>
	<line x1="335" y1="190" x2="335" y2="210" stroke="#000000" />
	<text x="335" y="188" text-anchor="middle" fill="#000000">9</text>
	<line x1="355" y1="190" x2="355" y2="210" stroke="#000000" />
	<text x="355" y="188" text-anchor="middle" fill="#000000">10</text>
	<line x1="375" y1="190" x2="375" y2="210" stroke="#000000" />
	<text x="375" y="188" text-anchor="middle" fill="#000000">11</text>
	<line x1="395" y1="190" x2="395" y2="210" stroke="#000000" />
	<text x="395" y="188" text-anchor="middle" fill="#000000">12</text>
	<line x1="415" y1="190" x2="415" y2="210" stroke="#000000" />
	<text x="415" y="188" text-anchor="middle" fill="#000000">13</text>
	<line x1="435" y1="190" x2="435" y2="210" stroke="#000000" />
	<text x="435" y="188" text-anchor="middle" fill="#000000">14</text>
	<line x1="455" y1="190" x2="455" y2="210" stroke="#000000" />
	<text x="455" y="188" text-anchor="middle" fill="#000000">15</text>
	<line x1="475" y1="190" x2="475" y2="210" stroke="#000000" />
	<text x="475" y="188" text-anchor="middle" fill="#000000">16</text>
	<line x1="495" y1="190" x2="495" y2="210" stroke="#000000" />
	<text x="495" y="188" text-anchor="middle" fill="#000000">17</text>
	<line x1="515" y1="190" x2="515" y2="210" stroke="#000000" />
	<text x="515" y="188" text-anchor="middle" fill="#000000">18</text>
	<line x1="535" y1="190" x2="535" y2="210" stroke="#000000" />
	<text x="535" y="188" text-anchor="middle" fill="#000000">19</text>
	<line x1="555" y1="190" x2="555" y2="210" stroke="#000000" />
	<text x="555" y="188" text-anchor="middle" fill="#000000">20</text>
	<line x1="575" y1="190" x2="575" y2="210" stroke="#000000" />
	<text x="575" y="188" text-anchor="middle" fill="#000000">21</text>
	<line x1="595" y1="190" x2="595" y2="210" stroke="#000000" />
	<text x="595" y="188" text-anchor="middle" fill="#000000">22</text>
	<line x1="615" y1="190" x2="615" y2="210" stroke="#000000" />
	<text x="615" y="188" text-anchor="middle" fill="#000000">23</text>
	<line x1="635" y1="175" x2="635" y2="225" stroke="#000000" />
	<text x="635" y="173" text-anchor="middle" fill="#000000">11/5/2023</text>
	<line x1="655" y1="190" x2="655" y2="210" stroke="#000000" />
	<text x="655" y="188" text-anchor="middle" fill="#000000">1</text>
	<line x1="675" y1="190" x2="675" y2="210" stroke="#000000" />
	<text x="675" y="188" text-anchor="middle" fill="#000000">1</text>
	<line x1="695" y1="190" x2="695" y2="210" stroke="#000000" />
	<text x="695" y="188" text-anchor="middle" fill="#000000">2</text>
	<line x1="715" y1="190" x2="715" y2="210" stroke="#000000" />
	<text x="715" y="188" text-anchor="middle" fill="#000000">3</text>
	<line x1="735" y1="190" x2="735" y2="210" stroke="#000000" />
	<text x="735" y="188" text-anchor="middle" fill="#000000">4</text>
	<line x1="755" y1="190" x2="755" y2="210" stroke="#000000" />
	<text x="755" y="188" text-anchor="middle" fill="#000000">5</text>
	<line x1="775" y1="190" x2="775" y2="210" stroke="#000000" />
	<text x="775" y="188" text-anchor="middle" fill="#000000">6</text>
	<line x1="795" y1="190" x2="795" y2="210" stroke="#000000" />
	<text x="795" y="188" text-anchor="middle" fill="#000000">7</text>
	<line x1="815" y1="190" x2="815" y2="210" stroke="#000000" />
	<text x="815" y="188" text-anchor="middle" fill="#000000">8</text>
	<line x1="835" y1="190" x2="835" y2="210" stroke="#000000" />
	<text x="835" y="188" text-anchor="middle" fill="#000000">9</text>
	<line x1="855" y1="190" x2="855" y2="210" stroke="#000000" />
	<text x="855" y="188" text-anchor="middle" fill="#000000">10</text>
	<line x1="875" y1="190" x2="875" y2="210" stroke="#000000" />
	<text x="875" y="188" text-anchor="middle" fill="#000000">11</text>
	<line x1="895" y1="190" x2="895" y2="210" stroke="#000000" />
	<text x="895" y="188" text-anchor="middle" fill="#000000">12</text>
	<line x1="915" y1="190" x2="915" y2="210" stroke="#000000" />
	<text x="915" y="188" text-anchor="middle" fill="#000000">13</text>
	<line x1="935" y1="190" x2="935" y2="210" stroke="#000000" />
	<text x="935" y="188" text-anchor="middle" fill="#000000">14</text>
	<line x1="955" y1="190" x2="955" y2="210" stroke="#000000" />
	<text x="955" y="188" text-anchor="middle" fill="#000000">15</text>
	<line x1="975" y1="190" x2="975" y2="210" stroke="#000000" />
	<text x="975" y="188" text-anchor="middle" fill="#000000">16</text>
	<line x1="995" y1="190" x2="995" y2="210" stroke="#000000" />
	<text x="995" y="188" text-anchor="middle" fill="#000000">17</text>
	<line x1="1015" y1="190" x2="1015" y2="210" stroke="#000000" />
	<text x="1015" y="188" text-anchor="middle" fill="#000000">18</text>
	<line x1="1035" y1="190" x2="1035" y2="210" stroke="#000000" />
	<text x="1035" y="188" text-anchor="middle" fill="#000000">19</text>
	<line x1="1055" y1="190" x2="1055" y2="210" stroke="#000000" />
	<text x="1055" y="188" text-anchor="middle" fill="#000000">20</text>
	<line x1="1075" y1="190" x2="1075" y2="210" stroke="#000000" />
	<text x="1075" y="188" text-anchor="middle" fill="#000000">21</text>
	<line x1="1095" y1="190" x2="1095" y2="210" stroke="#000000" />
	<text x="1095" y="188" text-anchor="middle" fill="#000000">22</text>
	<line x1="1115" y1="190" x2="1115" y2="210" stroke="#000000" />
	<text x="1115" y="188" text-anchor="middle" fill="#000000">23</text>
	<line x1="1135" y1="175" x2="1135" y2="225" stroke="#000000" />
	<text x="1135" y="173" text-anchor="middle" fill="#000000">11/6/2023</text>
	<text x="5" y="295" fill="#000000">America/New_York</text>
	<line x1="5" y1="300" x2="1135" y2="300" stroke="#000000" />
	<line x1="155" y1="290" x2="155" y2="310" stroke="#000000" />
	<text x="155" y="288" text-anchor="middle" fill="#000000">1</text>
	<line x1="175" y1="290" x2="175" y2="310" stroke="#000000" />
	<text x="175" y="288" text-anchor="middle" fill="#000000">2</text>
	<line x1="195" y1="290" x2="195" y2="310" stroke="#000000" />
	<text x="195" y="288" text-anchor="middle" fill="#000000">3</text>
	<line x1="215" y1="290" x2="215" y2="310" stroke="#000000" />
	<text x="215" y="288" text-anchor="middle" fill="#000000">4</text>
	<line x1="235" y1="290" x2="235" y2="310" stroke="#000000" />
	<text x="235" y="288" text-anchor="middle" fill="#000000">5</text>
	<line x1="255" y1="290" x2="255" y2="310" stroke="#000000" />
	<text x="255" y="288" text-anchor="middle" fill="#000000">6</text>
	<line x1="275" y1="290" x2="275" y2="310" stroke="#000000" />
	<text x="275" y="288" text-anchor="middle" fill="#000000">7</text>
	<line x1="295" y1="290" x2="295" y2="310" stroke="#000000" />
	<text x="295" y="288" text-anchor="middle" fill="#000000">8</text>
	<line x1="315" y1="290" x2="315" y2="310" stroke="#000000" />
	<text x="315" y="288" text-anchor="middle" fill="#000000">9</text>
	<line x1="335" y1="290" x2="335" y2="310" stroke="#000000" />
	<text x="335" y="288" text-anchor="middle" fill="#000000">10</text>
	<line x1="355" y1="290" x2="355" y2="310" stroke="#000000" />
	<text x="355" y="288" text-anchor="middle" fill="#000000">11</text>
	<line x1="375" y1="290" x2="375" y2="310" stroke="#000000" />
	<text x="375" y="288" text-anchor="middle" fill="#000000">12</text>
	<line x1="395" y1="290" x2="395" y2="310" stroke="#000000" />
	<text x="395" y="288" text-anchor="middle" fill="#000000">13</text>
	<line x1="415" y1="290" x2="415" y2="310" stroke="#000000" />
	<text x="415" y="288" text-anchor="middle" fill="#000000">14</text>
	<line x1="435" y1="290" x2="435" y2="310" stroke="#000000" />
	<text x="435" y="288" text-anchor="middle" fill="#000000">15</text>
	<line x1="455" y1="290" x2="455" y2="310" stroke="#000000" />
	<text x="455" y="288" text-anchor="middle" fill="#000000">16</text>
	<line x1="475" y1="290" x2="475" y2="310" stroke="#000000" />
	<text x="475" y="288" text-anchor="middle" fill="#000000">17</text>
	<line x1="495" y1="290" x2="495" y2="310" stroke="#000000" />
	<text x="495" y="288" text-anchor="middle" fill="#000000">18</text>
	<line x1="515" y1="290" x2="515" y2="310" stroke="#000000" />
	<text x="515" y="288" text-anchor="middle" fill="#000000">19</text>
	<line x1="535" y1="290" x2="535" y2="310" stroke="#000000" />
	<text x="535" y="288" text-anchor="middle" fill="#000000">20</text>
	<line x1="555" y1="290" x2="555" y2="310" stroke="#000000" />
	<text x="555" y="288" text-anchor="middle" fill="#000000">21</text>
	<line x1="575" y1="290" x2="575" y2="310" stroke="#000000" />
	<text x="575" y="288" text-anchor="middle" fill="#000000">22</text>
	<line x1="595" y1="290" x2="595" y2="310" stroke="#000000" />
	<text x="595" y="288" text-anchor="middle" fill="#000000">23</text>
	<line x1="615" y1="275" x2="615" y2="325" stroke="#000000" />
	<text x="615" y="273" text-anchor="middle" fill="#000000">11/5/2023</text>
	<line x1="635" y1="290" x2="635" y2="310" stroke="#000000" />
	<text x="635" y="288" text-anchor="middle" fill="#000000">1</text>
	<line x1="655" y1="290" x2="655" y2="310" stroke="#000000" />
	<text x="655" y="288" text-anchor="middle" fill="#000000">1</text>
	<line x1="675" y1="290" x2="675" y2="310" stroke="#000000" />
	<text x="675" y="288" text-anchor="middle" fill="#000000">2</text>
	<line x1="695" y1="290" x2="695" y2="310" stroke="#000000" />
	<text x="695" y="288" text-anchor="middle" fill="#000000">3</text>
	<line x1="715" y1="290" x2="715" y2="310" stroke="#000000" />
	<text x="715" y="288" text-anchor="middle" fill="#000000">4</text>
	<line x1="735" y1="290" x2="735" y2="310" stroke="#000000" />
	<text x="735" y="288" text-anchor="middle" fill="#000000">5</text>
	<line x1="755" y1="290" x2="755" y2="310" stroke="#000000" />
	<text x="755" y="288" text-anchor="middle" fill="#000000">6</text>
	<line x1="775" y1="290" x2="775" y2="310" stroke="#000000" />
	<text x="775" y="288" text-anchor="middle" fill="#000000">7</text>
	<line x1="795" y1="290" x2="795" y2="310" stroke="#000000" />
	<text x="795" y="288" text-anchor="middle" fill="#000000">8</text>
	<line x1="815" y1="290" x2="815" y2="310" stroke="#000000" />
	<text x="815" y="288" text-anchor="middle" fill="#000000">9</text>
	<line x1="835" y1="290" x2="835" y2="310" stroke="#000000" />
	<text x="835" y="288" text-anchor="middle" fill="#000000">10</text>
	<line x1="855" y1="290" x2="855" y2="310" stroke="#000000" />
	<text x="855" y="288" text-anchor="middle" fill="#000000">11</text>
	<line x1="875" y1="290" x2="875" y2="310" stroke="#000000" />
	<text x="875" y="288" text-anchor="middle" fill="#000000">12</text>
	<line x1="895" y1="290" x2="895" y2="310" stroke="#000000" />
	<text x="895" y="288" text-anchor="middle" fill="#000000">13</text>
	<line x1="915" y1="290" x2="915" y2="310" stroke="#000000" />
	<text x="915" y="288" text-anchor="middle" fill="#000000">14</text>
	<line x1="935" y1="290" x2="935" y2="310" stroke="#000000" />
	<text x="935" y="288" text-anchor="middle" fill="#000000">15</text>
	<line x1="955" y1="290" x2="955" y2="310" stroke="#000000" />
	<text x="955" y="288" text-anchor="middle" fill="#000000">16</text>
	<line x1="975" y1="290" x2="975" y2="310" stroke="#000000" />
	<text x="975" y="288" text-anchor="middle" fill="#000000">17</text>
	<line x1="995" y1="290" x2="995" y2="310" stroke="#000000" />
	<text x="995" y="288" text-anchor="middle" fill="#000000">18</text>
	<line x1="1015" y1="290" x2="1015" y2="310" stroke="#000000" />
	<text x="1015" y="288" text-anchor="middle" fill="#000000">19</text>
	<line x1="1035" y1="290" x2="1035" y2="310" stroke="#000000" />
	<text x="1035" y="288" text-anchor="middle" fill="#000000">20</text>
	<line x1="1055" y1="290" x2="1055" y2="310" stroke="#000000" />
	<text x="1055" y="288" text-anchor="middle" fill="#000000">21</text>
	<line x1="1075" y1="290" x2="1075" y2="310" stroke="#000000" />
	<text x="1075" y="288" text-anchor="middle" fill="#000000">22</text>
	<line x1="1095" y1="290" x2="1095" y2="310" stroke="#000000" />
	<text x="1095" y="288" text-anchor="middle" fill="#000000">23</text>
	<line x1="1115" y1="275" x2="1115" y2="325" stroke="#000000" />
	<text x="1115" y="273" text-anchor="middle" fill="#000000">11/6/2023</text>
	<line x1="1135" y1="290" x2="1135" y2="310" stroke="#000000" />
	<text x="1135" y="288" text-anchor="middle" fill="#000000">1</text>
	<line x1="155" y1="100" x2="155" y2="400" stroke="#000000" opacity="0.5" />
	<line x1="635" y1="100" x2="635" y2="400" stroke="#000000" opacity="0.5" />
	<line x1="155" y1="400" x2="635" y2="400" stroke="#000000" />
	<text x="395" y="395" text-anchor="middle" fill="#000000">11/4/2023</text>
	<line x1="635" y1="100" x2="635" y2="400" stroke="#000000" opacity="0.5" />
	<line x1="1135" y1="100" x2="1135" y2="400" stroke="#000000" opacity="0.5" />
	<line x1="635" y1="400" x2="1135" y2="400" stroke="#000000" />
	<text x="885" y="395" text-anchor="middle" fill="#000000">11/5/2023</text>
</svg>